{"glyphs":{"0":{"ha":1021,"x_min":0,"x_max":1021,"o":"m 510 1021 q 708 981 615 1021 q 871 872 801 940 q 981 710 940 803 q 1021 511 1021 617 q 981 313 1021 406 q 871 151 940 219 q 708 42 801 82 q 510 1 615 1 q 311 42 404 1 q 149 151 218 82 q 40 313 81 219 q 0 511 0 406 q 40 710 0 617 q 149 872 81 803 q 311 981 218 940 q 510 1021 404 1021 m 510 236 q 617 258 567 236 q 704 317 667 279 q 763 404 742 354 q 785 511 785 454 q 763 618 785 568 q 704 706 742 668 q 617 765 667 743 q 510 786 567 786 q 403 765 453 786 q 315 706 353 743 q 256 618 278 668 q 235 511 235 568 q 256 404 235 454 q 315 317 278 354 q 403 258 353 279 q 510 236 453 236 z "},"1":{"ha":519,"x_min":56,"x_max":461,"o":"m 461 907 l 461 671 l 461 671 l 461 1 l 226 1 l 226 671 l 56 671 l 56 907 l 226 907 l 226 1025 l 461 1025 l 461 907 l 461 907 l 461 907 z "},"2":{"ha":822,"x_min":65,"x_max":750,"o":"m 750 235 l 750 0 l 65 0 l 65 264 q 106 294 86 279 q 146 324 126 308 q 286 428 219 378 q 403 524 353 479 q 484 608 454 569 q 514 679 514 647 q 483 754 514 724 q 408 785 453 785 q 333 754 364 785 q 301 679 301 724 l 65 679 q 92 813 65 750 q 166 921 119 875 q 275 994 213 967 q 408 1021 338 1021 q 541 994 479 1021 q 649 921 603 967 q 723 813 696 875 q 750 679 750 750 q 727 561 750 617 q 661 453 704 506 q 557 347 618 400 q 421 235 496 293 l 750 235 z "},"3":{"ha":821,"x_min":78,"x_max":733,"o":"m 651 538 q 711 439 689 493 q 733 322 733 385 q 708 194 733 254 q 638 90 682 135 q 533 20 593 46 q 406 -6 474 -6 q 278 20 338 -6 q 174 90 218 46 q 103 194 129 135 q 78 322 78 254 l 314 322 q 340 256 314 283 q 406 229 367 229 q 470 256 443 229 q 497 322 497 283 q 470 387 497 360 q 406 414 443 414 l 406 415 l 322 415 l 322 650 l 406 650 q 457 672 436 650 q 478 724 478 693 q 457 775 478 754 q 406 796 436 796 q 353 775 375 796 q 332 724 332 754 l 97 724 q 122 844 97 788 q 188 942 146 900 q 285 1008 229 983 q 406 1032 342 1032 q 526 1008 469 1032 q 624 942 582 983 q 690 844 665 900 q 714 724 714 788 q 697 624 714 671 q 651 538 681 576 z "},"4":{"ha":783,"x_min":69,"x_max":714,"o":"m 479 1022 l 714 1022 l 714 0 l 479 0 l 479 181 l 69 181 l 69 415 l 69 415 l 69 415 l 479 1022 m 353 415 l 479 415 l 479 601 l 353 415 z "},"5":{"ha":821,"x_min":69,"x_max":751,"o":"m 411 0 q 278 27 340 0 q 169 100 215 54 q 97 208 124 146 q 69 342 69 271 l 304 342 q 335 266 304 297 q 411 235 367 235 q 486 266 456 235 q 517 342 517 297 q 486 414 517 385 q 411 443 456 443 l 69 443 l 69 1024 l 706 1024 l 706 789 l 304 789 l 304 678 l 411 678 q 544 651 482 678 q 651 579 606 625 q 724 472 697 533 q 751 342 751 411 q 724 208 751 271 q 651 100 697 146 q 544 27 606 54 q 411 0 482 0 z "},"6":{"ha":829,"x_min":46,"x_max":783,"o":"m 450 736 q 581 698 521 729 q 687 618 642 667 q 758 506 732 569 q 783 369 783 442 q 754 226 783 293 q 675 108 725 158 q 558 29 625 58 q 415 0 492 0 q 272 29 339 0 q 154 108 204 58 q 75 226 104 158 q 46 369 46 293 q 82 528 46 451 l 331 1021 l 594 1021 l 450 736 m 415 236 q 510 275 471 236 q 549 369 549 314 q 538 422 549 397 q 510 465 528 446 q 467 494 492 483 q 415 504 443 504 q 363 494 388 504 q 320 465 339 483 q 291 422 301 446 q 281 369 281 397 q 291 317 281 342 q 320 275 301 293 q 363 247 339 257 q 415 236 388 236 z "},"7":{"ha":778,"x_min":35,"x_max":746,"o":"m 72 0 l 394 785 l 35 785 l 35 1019 l 746 1019 l 326 0 l 72 0 z "},"8":{"ha":724,"x_min":18,"x_max":704,"o":"m 603 586 q 677 476 650 539 q 704 343 704 414 q 677 210 704 272 q 603 101 650 147 q 494 27 557 54 q 361 0 432 0 q 228 27 290 0 q 119 101 165 54 q 45 210 72 147 q 18 343 18 272 q 45 476 18 414 q 119 586 72 539 q 88 657 100 619 q 76 736 76 694 q 99 847 76 794 q 160 938 121 899 q 251 999 199 976 q 361 1021 303 1021 q 472 999 419 1021 q 563 938 524 976 q 624 847 601 899 q 646 736 646 794 q 634 657 646 694 q 603 586 622 619 m 361 786 q 326 772 340 786 q 311 736 311 757 q 326 702 311 717 q 361 688 340 688 q 395 702 381 688 q 410 736 410 717 q 395 772 410 757 q 361 786 381 786 m 361 235 q 438 267 406 235 q 469 343 469 299 q 438 419 469 388 q 361 451 406 451 q 285 419 317 451 q 253 343 253 388 q 285 267 253 299 q 361 235 317 235 z "},"9":{"ha":835,"x_min":47,"x_max":785,"o":"m 381 285 q 250 322 311 292 q 144 402 189 353 q 73 515 99 451 q 47 651 47 579 q 76 795 47 728 q 156 913 106 863 q 273 992 206 963 q 417 1021 340 1021 q 560 992 493 1021 q 676 913 626 963 q 756 795 726 863 q 785 651 785 728 q 750 493 785 568 l 500 0 l 238 0 l 381 285 m 417 786 q 365 776 389 786 q 322 747 340 765 q 292 703 303 728 q 282 651 282 679 q 292 599 282 624 q 322 557 303 575 q 365 528 340 539 q 417 518 389 518 q 511 557 472 518 q 550 651 550 596 q 540 703 550 679 q 511 747 529 728 q 469 776 493 765 q 417 786 444 786 z "},"\u0000":{"ha":0,"x_min":0,"x_max":0,"o":""},"\r":{"ha":833,"x_min":0,"x_max":0,"o":""}," ":{"ha":322,"x_min":0,"x_max":0,"o":""},"E":{"ha":793,"x_min":69,"x_max":724,"o":"m 724 785 l 304 785 l 304 631 l 644 631 l 644 396 l 304 396 l 304 235 l 724 235 l 724 0 l 69 0 l 69 1018 l 724 1019 l 724 785 z "},"F":{"ha":754,"x_min":69,"x_max":685,"o":"m 685 785 l 304 785 l 304 631 l 606 631 l 606 396 l 304 396 l 304 0 l 69 0 l 69 1019 l 685 1019 l 685 785 z "},"G":{"ha":940,"x_min":-10,"x_max":899,"o":"m 899 571 l 899 0 l 663 0 l 663 25 q 583 5 624 11 q 501 -1 542 -1 q 308 36 401 -1 q 139 149 214 74 q 28 317 65 222 q -10 510 -10 411 q 27 703 -10 608 q 139 872 64 797 q 308 985 214 947 q 501 1022 403 1022 q 694 985 600 1022 q 864 872 789 947 l 697 706 q 606 766 657 746 q 501 786 554 786 q 397 766 449 786 q 306 706 346 746 q 244 614 265 665 q 224 510 224 563 q 244 406 224 457 q 306 314 265 354 q 387 258 342 278 q 480 234 432 238 q 575 243 528 231 q 663 285 622 256 l 663 336 l 458 336 l 458 571 l 899 571 z "},"H":{"ha":903,"x_min":69,"x_max":833,"o":"m 599 1019 l 833 1019 l 833 0 l 599 0 l 599 385 l 304 385 l 304 0 l 69 0 l 69 1019 l 304 1019 l 304 619 l 599 619 l 599 1019 z "},"I":{"ha":374,"x_min":69,"x_max":304,"o":"m 304 0 l 69 0 l 69 1021 l 304 1021 l 304 0 z "},"K":{"ha":917,"x_min":69,"x_max":971,"o":"m 971 1021 l 447 510 l 971 0 l 632 0 l 304 321 l 304 0 l 69 0 l 69 1021 l 304 1021 l 304 699 l 633 1021 l 971 1021 z "},"L":{"ha":746,"x_min":69,"x_max":676,"o":"m 676 0 l 69 0 l 69 1021 l 304 1021 l 304 235 l 676 235 l 676 0 z "},"M":{"ha":1053,"x_min":1,"x_max":1051,"o":"m 750 1021 l 992 1021 l 1051 0 l 817 0 l 792 417 l 650 0 l 415 0 l 265 433 l 238 0 l 1 0 l 67 1021 l 308 1021 l 532 382 l 750 1021 z "},"N":{"ha":961,"x_min":69,"x_max":892,"o":"m 657 1019 l 892 1019 l 892 0 l 638 0 l 304 594 l 304 0 l 69 0 l 69 1017 l 325 1017 l 657 424 l 657 1019 z "},"O":{"ha":1021,"x_min":0,"x_max":1021,"o":"m 510 1021 q 708 981 615 1021 q 871 872 801 940 q 981 710 940 803 q 1021 511 1021 617 q 981 313 1021 406 q 871 151 940 219 q 708 42 801 82 q 510 1 615 1 q 311 42 404 1 q 149 151 218 82 q 40 313 81 219 q 0 511 0 406 q 40 710 0 617 q 149 872 81 803 q 311 981 218 940 q 510 1021 404 1021 m 510 236 q 617 258 567 236 q 704 317 667 279 q 763 404 742 354 q 785 511 785 454 q 763 618 785 568 q 704 706 742 668 q 617 765 667 743 q 510 786 567 786 q 403 765 453 786 q 315 706 353 743 q 256 618 278 668 q 235 511 235 568 q 256 404 235 454 q 315 317 278 354 q 403 258 353 279 q 510 236 453 236 z "},"P":{"ha":794,"x_min":69,"x_max":725,"o":"m 725 590 q 692 426 725 503 q 602 290 660 349 q 468 198 544 232 q 304 163 392 164 l 304 0 l 69 0 l 69 1019 l 304 1019 q 468 983 392 1018 q 602 890 544 949 q 692 755 660 832 q 725 590 725 678 m 304 397 q 377 415 343 399 q 436 456 411 431 q 476 517 461 482 q 490 590 490 551 q 476 664 490 629 q 436 724 461 699 q 377 766 411 750 q 304 783 343 782 l 304 397 z "},"Q":{"ha":988,"x_min":-15,"x_max":1001,"o":"m 1001 510 q 963 315 1001 406 q 856 154 924 225 l 915 68 l 722 -65 l 657 28 q 577 8 618 15 q 493 1 536 1 q 295 42 388 1 q 134 151 203 82 q 25 312 65 219 q -15 510 -15 404 q 25 708 -15 615 q 134 869 65 800 q 295 978 203 938 q 493 1018 388 1018 q 691 978 599 1018 q 852 869 783 938 q 961 708 921 800 q 1001 510 1001 615 m 493 236 q 514 238 510 236 l 394 411 l 589 544 l 718 356 q 767 510 767 421 q 745 615 767 565 q 687 703 724 665 q 600 762 650 740 q 493 783 550 783 q 386 762 436 783 q 299 703 336 740 q 241 615 263 665 q 219 510 219 565 q 241 403 219 453 q 299 316 263 353 q 386 258 336 279 q 493 236 436 236 z "},"R":{"ha":851,"x_min":69,"x_max":818,"o":"m 378 264 q 342 260 360 261 q 304 257 324 258 l 304 0 l 69 0 l 69 1017 l 304 1017 q 468 985 392 1015 q 602 903 544 954 q 692 783 660 851 q 725 638 725 714 q 690 485 725 554 q 593 364 656 415 l 818 0 l 542 0 l 378 264 m 304 493 q 376 506 342 494 q 435 538 410 518 q 476 583 461 557 q 490 638 490 608 q 476 692 490 667 q 435 736 461 717 q 376 767 410 756 q 304 781 342 779 l 304 493 z "},"S":{"ha":746,"x_min":26,"x_max":717,"o":"m 372 -19 q 276 -6 324 -19 q 185 35 228 7 q 68 160 110 83 q 26 329 26 238 l 261 329 q 279 265 261 288 q 311 233 297 242 q 365 215 336 217 q 422 226 394 214 q 453 247 442 235 q 472 271 465 258 q 479 294 478 283 q 481 313 481 306 q 479 331 481 319 q 472 353 478 342 q 453 378 465 365 q 422 400 442 390 q 390 413 407 407 q 353 425 372 418 q 281 450 318 436 q 206 488 243 464 q 124 564 157 518 q 76 663 90 610 q 66 772 61 715 q 97 879 71 828 q 160 961 122 926 q 243 1016 197 996 q 342 1040 289 1036 q 449 1031 394 1044 q 544 991 501 1018 q 619 926 588 964 q 667 840 650 888 q 683 742 683 793 l 449 742 q 428 786 449 774 q 393 803 408 799 q 380 804 390 803 q 356 804 369 806 q 329 796 343 803 q 307 771 315 789 q 303 724 296 749 q 331 686 310 700 q 374 666 350 675 q 424 649 397 657 q 472 633 447 642 q 521 614 496 625 q 665 492 613 572 q 717 313 717 413 q 665 135 717 215 q 521 13 613 54 q 447 -12 485 -4 q 372 -19 410 -19 z "},"T":{"ha":656,"x_min":15,"x_max":640,"o":"m 640 1024 l 640 788 l 444 788 l 444 0 l 210 0 l 210 788 l 15 788 l 15 1024 l 640 1024 z "},"U":{"ha":914,"x_min":69,"x_max":844,"o":"m 457 0 q 309 28 378 0 q 186 110 240 57 q 101 235 131 165 q 69 383 71 304 l 69 1021 l 304 1021 l 304 385 q 350 278 304 324 q 458 235 394 235 q 517 247 490 235 q 565 281 544 260 q 597 329 585 301 q 608 389 608 357 l 608 1021 l 843 1021 l 843 390 q 815 240 844 311 q 733 117 785 169 q 610 33 681 64 q 461 0 540 1 l 457 0 z "},"V":{"ha":781,"x_min":-57,"x_max":842,"o":"m 593 1028 l 842 1028 l 494 0 l 272 0 l -57 1028 l 190 1028 l 386 397 l 593 1028 z "},"W":{"ha":1274,"x_min":-42,"x_max":1315,"o":"m 1069 1026 l 1315 1026 l 1014 0 l 782 0 l 647 511 l 531 0 l 297 0 l -42 1026 l 206 1026 l 394 458 l 524 1026 l 754 1026 l 904 461 l 1069 1026 z "},"X":{"ha":921,"x_min":0,"x_max":919,"o":"m 893 1028 l 593 531 l 919 0 l 643 0 l 457 303 l 274 0 l 0 0 l 318 529 l 13 1028 l 288 1028 l 456 756 l 618 1028 l 893 1028 z "},"Y":{"ha":969,"x_min":-3,"x_max":900,"o":"m 228 0 l 346 289 l -3 1028 l 257 1028 l 467 585 l 646 1028 l 900 1028 l 482 0 l 228 0 z "},"Z":{"ha":958,"x_min":69,"x_max":889,"o":"m 883 0 l 69 0 l 496 792 l 125 792 l 125 1028 l 889 1026 l 463 235 l 883 235 l 883 0 z "},"Ó":{"ha":993,"x_min":-15,"x_max":1006,"o":"m 494 1021 q 693 981 600 1021 q 856 871 786 940 q 965 708 925 801 q 1006 510 1006 615 q 965 311 1006 404 q 856 149 925 218 q 693 40 786 81 q 494 0 600 0 q 296 40 389 0 q 134 149 203 81 q 25 311 65 218 q -15 510 -15 404 q 25 708 -15 615 q 134 871 65 801 q 296 981 203 940 q 494 1021 389 1021 m 494 235 q 601 256 551 235 q 689 315 651 278 q 748 403 726 353 q 769 510 769 453 q 748 617 769 567 q 689 704 726 667 q 601 763 651 742 q 494 785 551 785 q 388 763 438 785 q 300 704 338 742 q 241 617 263 667 q 219 510 219 567 q 241 403 219 453 q 300 315 263 353 q 388 256 338 278 q 494 235 438 235 m 501 1340 l 711 1340 l 599 1104 l 388 1104 l 501 1340 z "},".":{"ha":317,"x_min":38,"x_max":279,"o":"m 279 121 q 244 35 279 71 q 158 0 208 0 q 73 35 108 0 q 38 121 38 71 q 73 206 38 171 q 158 242 108 242 q 244 206 208 242 q 279 121 279 171 z "},"Á":{"ha":1038,"x_min":69,"x_max":968,"o":"m 721 0 l 681 124 l 360 124 l 318 0 l 69 0 l 415 1019 l 639 1019 l 968 0 l 721 0 m 440 358 l 604 358 l 525 606 l 440 358 m 433 1104 l 546 1339 l 757 1339 l 644 1104 l 433 1104 z "},"É":{"ha":793,"x_min":69,"x_max":724,"o":"m 724 785 l 304 785 l 304 631 l 644 631 l 644 396 l 304 396 l 304 235 l 724 235 l 724 0 l 69 0 l 69 1019 l 724 1019 l 724 785 m 286 1104 l 399 1339 l 610 1339 l 496 1104 l 286 1104 z "},"Ú":{"ha":915,"x_min":69,"x_max":844,"o":"m 844 1035 l 844 390 q 815 240 844 311 q 734 117 786 169 q 612 33 682 64 q 461 0 542 1 l 457 0 q 186 111 297 0 q 101 235 131 165 q 69 383 71 304 l 69 1035 l 304 1035 l 304 385 q 350 278 306 322 q 458 235 394 235 q 517 247 490 235 q 565 281 544 260 q 597 329 585 301 q 608 389 608 357 l 608 1035 l 844 1035 m 572 1138 l 361 1138 l 475 1374 l 685 1374 l 572 1138 z "},"×":{"ha":1035,"x_min":69,"x_max":965,"o":"m 965 729 l 683 447 l 965 167 l 799 0 l 517 282 l 236 0 l 69 167 l 351 449 l 69 729 l 236 896 l 518 614 l 799 896 l 965 729 z "},"!":{"ha":382,"x_min":69,"x_max":313,"o":"m 190 242 q 277 206 242 242 q 313 121 313 171 q 277 35 313 71 q 190 0 242 0 q 105 35 140 0 q 69 121 69 71 q 105 206 69 171 q 190 242 140 242 m 74 351 l 74 1039 l 308 1039 l 308 351 l 74 351 z "},"@":{"ha":1069,"x_min":18,"x_max":1050,"o":"m 807 490 q 827 499 819 490 q 835 519 835 507 q 808 635 833 581 q 742 728 783 689 q 647 791 701 768 q 531 813 592 814 q 321 722 407 810 q 257 624 279 679 q 236 510 235 569 q 328 300 239 383 q 424 236 371 258 q 540 215 478 214 l 543 215 q 562 217 547 215 q 599 224 576 218 q 649 242 621 231 q 710 274 678 254 l 825 92 q 725 40 772 58 q 640 13 678 22 q 576 2 601 4 q 542 0 550 0 q 475 4 508 0 q 178 144 304 22 q 63 309 103 217 q 21 506 24 401 q 56 703 18 610 q 165 872 94 797 q 330 987 238 947 q 526 1028 422 1026 q 726 990 632 1029 q 892 883 821 951 q 1005 721 963 814 q 1050 522 1047 628 q 1031 433 1050 475 q 978 361 1011 392 q 903 313 946 331 q 814 294 861 294 q 799 294 807 294 q 783 296 790 294 q 693 328 733 301 q 539 269 628 271 q 522 270 531 269 q 507 271 514 271 q 422 297 461 276 q 354 350 383 318 q 308 423 325 382 q 290 510 292 464 q 308 606 290 561 q 359 685 326 651 q 435 739 392 719 q 532 758 479 758 q 547 758 539 758 q 564 757 556 758 q 647 731 607 751 q 715 678 686 710 q 762 606 744 647 q 779 518 779 565 l 779 517 q 807 490 781 490 m 536 465 q 570 481 556 467 q 583 515 585 496 q 572 547 583 533 q 542 563 560 560 l 535 563 q 501 548 515 563 q 486 514 486 533 q 499 482 488 494 q 529 467 511 469 q 536 465 531 465 z "},"#":{"ha":1049,"x_min":69,"x_max":979,"o":"m 932 442 l 933 207 l 769 207 l 742 0 l 504 0 l 532 206 l 435 206 l 408 0 l 171 0 l 199 206 l 71 204 l 69 439 l 229 440 l 247 583 l 117 583 l 115 818 l 278 818 l 308 1044 l 544 1044 l 515 819 l 611 819 l 642 1044 l 878 1044 l 849 821 l 978 821 l 979 586 l 818 585 l 800 442 l 932 442 m 467 440 l 563 442 l 581 585 l 485 583 l 467 440 z "},"$":{"ha":735,"x_min":69,"x_max":665,"o":"m 496 619 q 620 515 575 583 q 665 358 665 446 q 620 204 665 274 q 496 99 575 135 q 485 94 490 96 q 472 89 479 92 l 472 0 l 263 0 l 263 90 q 235 102 249 96 q 206 118 221 108 q 106 226 142 158 q 69 372 69 293 l 304 371 q 315 334 304 347 q 333 315 325 321 q 358 306 340 311 q 399 313 375 301 q 425 336 419 322 q 431 358 431 350 q 425 382 431 368 q 399 406 419 396 q 374 415 388 411 q 344 425 360 419 q 286 445 317 433 q 224 476 256 457 q 151 543 181 503 q 110 630 122 583 q 101 726 97 676 q 129 819 106 775 q 263 940 172 904 l 263 1031 l 472 1031 l 472 940 q 594 846 549 910 q 639 699 639 782 l 404 699 q 401 710 404 701 q 379 724 399 719 q 360 725 375 725 q 338 711 344 725 q 349 675 328 692 q 379 662 361 668 q 417 649 397 656 q 455 635 435 642 q 496 619 475 629 z "},"%":{"ha":1251,"x_min":65,"x_max":1186,"o":"m 1117 879 l 310 -10 l 136 149 l 942 1036 l 1117 879 m 314 542 q 227 558 268 542 q 153 601 186 574 q 99 669 121 629 q 72 754 78 708 q 78 851 65 804 q 120 935 92 897 q 190 997 149 972 q 282 1028 232 1021 q 299 1030 290 1029 q 314 1031 307 1031 q 401 1015 360 1031 q 474 970 442 999 q 528 903 507 942 q 556 818 550 864 q 549 722 563 768 q 508 638 536 675 q 438 575 479 600 q 346 544 396 550 q 329 542 338 543 q 314 542 321 542 m 307 835 q 275 815 288 832 q 265 779 263 799 q 281 749 268 761 q 314 738 294 738 l 319 738 q 352 756 340 740 q 361 792 364 772 q 345 823 358 811 q 314 835 332 835 l 307 835 m 1179 278 q 1173 181 1186 228 q 1131 97 1160 135 q 1061 35 1103 60 q 969 4 1019 10 q 953 2 961 3 q 936 1 944 1 q 850 17 892 1 q 776 61 808 33 q 722 128 743 89 q 694 214 700 168 q 701 310 688 264 q 744 394 715 357 q 814 456 772 432 q 906 488 856 481 q 921 490 913 489 q 938 490 929 490 q 1024 474 983 490 q 1097 430 1065 458 q 1151 363 1129 401 q 1179 278 1172 324 m 943 197 q 975 216 963 200 q 985 251 988 232 q 969 283 982 271 q 938 294 956 294 q 931 293 932 294 q 899 274 911 290 q 889 239 886 258 q 905 209 892 221 q 936 197 918 197 l 943 197 z "},"&":{"ha":979,"x_min":67,"x_max":910,"o":"m 382 0 q 367 0 375 0 q 353 1 360 0 q 189 60 257 8 q 89 199 121 111 q 71 315 67 261 q 97 414 75 368 q 154 499 119 460 q 229 572 189 539 q 192 616 210 592 q 163 671 175 640 q 142 793 138 731 q 182 914 147 856 q 276 1007 218 972 q 401 1047 333 1042 q 553 1016 485 1053 q 663 908 622 979 q 699 765 701 840 q 651 622 696 689 q 617 581 636 600 q 575 542 597 561 l 910 169 l 735 13 l 658 97 q 528 26 600 53 q 382 0 457 0 m 388 399 q 320 332 339 360 q 311 278 301 304 q 330 249 318 260 q 371 236 342 239 q 436 244 401 233 q 500 272 471 254 l 388 399 m 419 813 q 397 804 406 811 q 382 790 388 797 q 376 771 375 779 q 379 760 378 763 q 394 740 382 753 q 417 717 406 728 l 417 715 q 457 757 447 739 q 463 769 460 760 q 458 792 467 778 q 447 803 456 794 q 422 813 439 813 l 419 813 z "},"£":{"ha":897,"x_min":69,"x_max":828,"o":"m 828 238 l 828 0 l 69 0 l 69 217 l 83 224 q 215 346 186 276 l 69 346 l 69 583 l 156 583 q 139 685 139 635 q 166 819 139 756 q 240 928 193 882 q 349 1002 286 975 q 483 1029 413 1029 q 617 1002 554 1029 q 726 928 679 975 q 801 819 774 882 q 828 685 828 756 l 590 685 q 559 760 590 729 q 483 792 528 792 q 406 760 438 792 q 375 685 375 729 q 380 660 375 678 q 403 615 385 643 l 419 583 l 654 583 l 654 346 l 458 346 q 453 322 456 335 q 449 297 451 310 q 426 238 442 269 l 828 238 z "},"€":{"ha":853,"x_min":69,"x_max":783,"o":"m 635 790 q 478 740 547 790 l 671 742 l 672 526 l 358 525 l 358 513 l 358 500 l 671 501 l 672 286 l 476 285 q 635 235 546 235 l 783 235 l 783 0 l 635 0 q 491 21 560 0 q 363 79 422 42 q 256 169 303 117 q 176 283 208 221 l 71 283 l 69 499 l 122 499 l 122 513 l 122 524 l 71 524 l 69 739 l 176 739 q 254 856 207 803 q 361 946 301 908 q 490 1004 421 983 q 635 1025 560 1025 l 783 1025 l 783 790 l 635 790 z "},"?":{"ha":811,"x_min":69,"x_max":747,"o":"m 740 726 q 704 557 747 638 q 576 414 661 476 q 543 369 557 400 q 529 311 529 339 l 294 311 q 305 395 294 353 q 334 476 315 438 q 380 547 353 514 q 439 604 407 581 q 506 711 510 656 q 490 753 504 733 q 451 785 475 772 q 397 796 422 801 q 360 782 372 790 q 319 741 333 767 q 304 683 304 715 l 304 613 l 69 613 l 69 683 q 115 858 69 779 q 239 985 160 936 q 400 1031 315 1029 q 564 992 485 1033 q 689 880 643 950 q 740 726 735 810 m 413 238 q 496 203 461 238 q 531 118 531 168 q 496 35 531 69 q 413 0 461 0 q 329 35 364 0 q 294 118 294 69 q 329 203 294 168 q 413 238 364 238 z "},"¿":{"ha":811,"x_min":65,"x_max":742,"o":"m 742 418 l 742 347 q 697 174 742 251 q 572 47 651 96 q 403 0 492 0 q 247 40 318 0 q 123 152 168 82 q 71 306 78 222 q 108 474 65 393 q 235 617 151 554 q 269 661 254 631 q 283 719 283 692 l 518 719 q 508 635 518 678 q 478 555 497 593 q 432 483 458 517 q 372 426 406 450 q 306 321 304 375 q 360 246 310 272 q 415 236 390 231 q 453 249 439 242 q 492 290 478 264 q 507 347 507 317 l 507 418 l 742 418 m 399 793 q 315 828 350 793 q 281 913 281 863 q 315 996 281 961 q 399 1031 350 1031 q 483 997 447 1031 q 518 913 518 963 q 508 866 518 888 q 483 828 499 844 q 445 802 467 811 q 399 793 424 793 z "},")":{"ha":564,"x_min":69,"x_max":494,"o":"m 356 1033 q 458 787 422 917 q 494 514 494 657 q 460 243 494 372 q 358 0 425 114 l 74 0 q 210 236 161 106 q 258 514 258 367 q 208 796 258 664 q 69 1033 158 928 l 356 1033 z "},"(":{"ha":564,"x_min":69,"x_max":494,"o":"m 208 0 q 106 247 142 117 q 69 519 69 376 q 104 790 69 661 q 206 1033 139 919 l 489 1033 q 353 797 401 928 q 304 519 304 667 q 355 238 304 369 q 494 0 406 106 l 208 0 z "},"]":{"ha":490,"x_min":69,"x_max":421,"o":"m 421 0 l 69 0 l 69 235 l 186 235 l 186 786 l 69 786 l 69 1021 l 421 1021 l 421 0 z "},"[":{"ha":490,"x_min":69,"x_max":421,"o":"m 421 0 l 69 0 l 69 1021 l 421 1021 l 421 786 l 304 786 l 304 235 l 421 235 l 421 0 z "},",":{"ha":354,"x_min":0,"x_max":313,"o":"m 0 -149 l 113 126 l 313 126 l 200 -149 l 0 -149 z "},"+":{"ha":808,"x_min":69,"x_max":739,"o":"m 739 626 l 739 392 l 521 392 l 521 175 l 286 175 l 286 392 l 69 393 l 69 628 l 286 628 l 286 844 l 521 844 l 521 628 l 739 626 z "},"=":{"ha":808,"x_min":69,"x_max":739,"o":"m 739 817 l 739 582 l 69 582 l 69 817 l 739 817 m 69 203 l 69 438 l 739 438 l 739 203 l 69 203 z "},"-":{"ha":808,"x_min":69,"x_max":739,"o":"m 739 392 l 69 393 l 69 628 l 739 626 l 739 392 z "},"_":{"ha":808,"x_min":69,"x_max":739,"o":"m 739 0 l 69 0 l 69 235 l 739 235 l 739 0 z "},"|":{"ha":374,"x_min":69,"x_max":304,"o":"m 304 0 l 69 0 l 69 1032 l 304 1032 l 304 0 z "},"\\":{"ha":511,"x_min":69,"x_max":442,"o":"m 204 0 l 69 1032 l 307 1032 l 442 0 l 204 0 z "},"/":{"ha":511,"x_min":69,"x_max":442,"o":"m 307 0 l 69 0 l 204 1032 l 442 1032 l 307 0 z "},"^":{"ha":901,"x_min":69,"x_max":832,"o":"m 560 1018 l 832 411 l 617 315 l 450 688 l 283 315 l 69 411 l 340 1018 l 560 1018 z "},">":{"ha":842,"x_min":69,"x_max":772,"o":"m 772 400 l 165 129 l 69 343 l 442 510 l 69 676 l 165 890 l 772 619 l 772 400 z "},"<":{"ha":842,"x_min":69,"x_max":772,"o":"m 69 619 l 676 890 l 772 676 l 400 510 l 772 343 l 676 129 l 69 400 l 69 619 z "},"°":{"ha":758,"x_min":69,"x_max":689,"o":"m 379 1018 q 499 994 443 1018 q 598 927 556 969 q 665 828 640 885 q 689 708 689 772 q 665 588 689 644 q 598 490 640 532 q 499 423 556 447 q 379 399 443 399 q 259 423 315 399 q 160 490 203 447 q 94 588 118 532 q 69 708 69 644 q 94 828 69 772 q 160 927 118 885 q 259 994 203 969 q 379 1018 315 1018 m 379 633 q 433 655 411 633 q 454 708 454 676 q 433 762 454 740 q 379 783 411 783 q 326 762 347 783 q 304 708 304 740 q 326 655 304 676 q 379 633 347 633 z "},"\"":{"ha":674,"x_min":69,"x_max":604,"o":"m 69 551 l 69 1018 l 304 1018 l 304 551 l 69 551 m 369 1018 l 604 1018 l 604 551 l 369 551 l 369 1018 z "},":":{"ha":382,"x_min":69,"x_max":313,"o":"m 190 556 q 105 591 140 556 q 69 676 69 626 q 105 763 69 728 q 190 799 140 799 q 277 763 242 799 q 313 676 313 728 q 277 591 313 626 q 190 556 242 556 m 190 464 q 277 428 242 464 q 313 343 313 393 q 277 256 313 292 q 190 221 242 221 q 105 256 140 221 q 69 343 69 292 q 105 428 69 393 q 190 464 140 464 z "},";":{"ha":451,"x_min":69,"x_max":382,"o":"m 382 463 l 269 188 l 69 188 l 182 463 l 382 463 m 254 554 q 167 590 203 554 q 132 676 132 625 q 167 762 132 726 q 254 797 203 797 q 340 762 304 797 q 375 676 375 726 q 340 590 375 625 q 254 554 304 554 z "},"*":{"ha":711,"x_min":69,"x_max":642,"o":"m 642 851 l 522 732 l 642 613 l 475 446 l 356 565 l 236 446 l 69 613 l 189 732 l 69 851 l 236 1018 l 356 899 l 475 1018 l 642 851 z "},"'":{"ha":374,"x_min":69,"x_max":304,"o":"m 69 1018 l 304 1018 l 304 551 l 69 551 l 69 1018 z "},"D":{"ha":778,"x_min":69,"x_max":793,"o":"m 304 1024 q 495 975 406 1018 q 651 863 585 932 q 755 701 717 793 q 793 506 793 610 q 756 313 793 403 q 652 156 718 224 q 497 47 586 88 q 304 0 408 6 l 69 0 l 69 1025 l 304 1025 l 304 1024 m 304 236 q 405 265 358 242 q 485 324 451 288 q 539 406 519 360 q 558 506 558 453 q 539 609 558 560 q 485 697 519 658 q 404 759 450 735 q 304 789 358 783 l 304 236 z "},"A":{"ha":900,"x_min":1,"x_max":900,"o":"m 653 0 l 613 124 l 292 124 l 250 0 l 1 0 l 349 1019 l 571 1019 l 900 0 l 653 0 m 372 358 l 538 358 l 457 606 l 372 358 z "},"B":{"ha":740,"x_min":69,"x_max":758,"o":"m 618 614 q 722 497 685 565 q 758 347 758 428 q 728 212 758 275 q 644 101 697 149 q 519 27 590 54 q 368 0 449 0 l 69 0 l 69 1024 l 340 1022 q 461 1000 404 1022 q 561 940 518 978 q 628 851 604 901 q 653 742 653 800 q 618 614 653 671 m 304 788 l 304 694 l 342 694 q 397 711 376 696 q 418 742 418 726 q 397 772 418 756 q 340 788 376 788 l 304 788 m 368 236 q 427 245 399 236 q 477 269 456 254 q 511 305 499 285 q 524 347 524 325 q 511 390 524 369 q 477 426 499 411 q 427 451 456 442 q 368 460 399 460 l 343 460 l 340 460 l 304 460 l 304 236 l 368 236 z "},"C":{"ha":840,"x_min":-17,"x_max":854,"o":"m 493 1 q 300 38 393 1 q 132 150 207 75 q 22 316 60 225 q -17 511 -17 407 q 22 708 -17 615 q 132 872 60 800 q 301 985 207 947 q 492 1022 394 1022 q 685 985 590 1022 q 854 872 779 947 l 689 707 q 597 767 649 747 q 493 788 546 788 q 390 767 440 788 q 299 707 339 747 q 239 617 260 667 q 218 511 218 567 q 239 406 218 456 q 299 317 260 357 q 390 256 339 276 q 493 236 440 236 q 597 256 546 236 q 689 317 649 276 l 854 150 q 686 38 779 75 q 493 1 593 1 z "},"{":{"ha":1157,"x_min":69,"x_max":421,"o":"m 421 0 l 69 0 l 69 1021 l 421 1021 l 421 786 l 304 786 l 304 235 l 421 235 l 421 0 z "},"}":{"ha":1157,"x_min":69,"x_max":421,"o":"m 421 0 l 69 0 l 69 235 l 186 235 l 186 786 l 69 786 l 69 1021 l 421 1021 l 421 0 z "},"a":{"ha":901,"x_min":1,"x_max":900,"o":"m 613 124 l 292 124 l 250 0 l 1 0 l 349 1019 l 571 1019 l 900 0 l 653 0 l 613 124 m 538 358 l 457 606 l 372 358 l 538 358 z "},"b":{"ha":733,"x_min":69,"x_max":758,"o":"m 618 614 q 722 497 685 565 q 758 347 758 428 q 728 212 758 275 q 644 101 697 149 q 519 27 590 54 q 368 0 449 0 l 69 0 l 69 1024 l 340 1022 q 461 1000 404 1022 q 561 940 518 978 q 628 851 604 901 q 653 742 653 800 q 618 614 653 671 m 304 788 l 304 694 l 342 694 q 397 711 376 696 q 418 742 418 726 q 397 772 418 756 q 340 788 376 788 l 304 788 m 368 236 q 427 245 399 236 q 477 269 456 254 q 511 305 499 285 q 524 347 524 325 q 511 390 524 369 q 477 426 499 411 q 427 451 456 442 q 368 460 399 460 l 343 460 l 340 460 l 304 460 l 304 236 l 368 236 z "},"c":{"ha":819,"x_min":-17,"x_max":854,"o":"m 493 1 q 300 38 393 1 q 132 150 207 75 q 22 316 60 225 q -17 511 -17 407 q 22 708 -17 615 q 132 872 60 800 q 301 985 207 947 q 492 1022 394 1022 q 685 985 590 1022 q 854 872 779 947 l 689 707 q 597 767 649 747 q 493 788 546 788 q 390 767 440 788 q 299 707 339 747 q 239 617 260 667 q 218 511 218 567 q 239 406 218 456 q 299 317 260 357 q 390 256 339 276 q 493 236 440 236 q 597 256 546 236 q 689 317 649 276 l 854 150 q 686 38 779 75 q 493 1 593 1 z "},"d":{"ha":772,"x_min":69,"x_max":793,"o":"m 304 1024 q 495 975 406 1018 q 651 863 585 932 q 755 701 717 793 q 793 506 793 610 q 756 313 793 403 q 652 156 718 224 q 497 47 586 88 q 304 0 408 6 l 69 0 l 69 1025 l 304 1025 l 304 1024 m 304 236 q 405 265 358 242 q 485 324 451 288 q 539 406 519 360 q 558 506 558 453 q 539 609 558 560 q 485 697 519 658 q 404 759 450 735 q 304 789 358 783 l 304 236 z "},"e":{"ha":800,"x_min":69,"x_max":724,"o":"m 304 785 l 304 631 l 644 631 l 644 396 l 304 396 l 304 235 l 724 235 l 724 0 l 69 0 l 69 1018 l 724 1019 l 724 785 l 304 785 z "},"f":{"ha":753,"x_min":69,"x_max":685,"o":"m 304 785 l 304 631 l 606 631 l 606 396 l 304 396 l 304 0 l 69 0 l 69 1019 l 685 1019 l 685 785 l 304 785 z "},"g":{"ha":964,"x_min":-10,"x_max":899,"o":"m 899 571 l 899 0 l 663 0 l 663 25 q 583 5 624 11 q 501 -1 542 -1 q 308 36 401 -1 q 139 149 214 74 q 28 317 65 222 q -10 510 -10 411 q 27 703 -10 608 q 139 872 64 797 q 308 985 214 947 q 501 1022 403 1022 q 694 985 600 1022 q 864 872 789 947 l 697 706 q 606 766 657 746 q 501 786 554 786 q 397 766 449 786 q 306 706 346 746 q 244 614 265 665 q 224 510 224 563 q 244 406 224 457 q 306 314 265 354 q 387 258 342 278 q 480 234 432 238 q 575 243 528 231 q 663 285 622 256 l 663 336 l 458 336 l 458 571 l 899 571 z "},"h":{"ha":901,"x_min":69,"x_max":833,"o":"m 833 1019 l 833 0 l 599 0 l 599 385 l 304 385 l 304 0 l 69 0 l 69 1019 l 304 1019 l 304 619 l 599 619 l 599 1019 l 833 1019 z "},"i":{"ha":318,"x_min":42,"x_max":276,"o":"m 276 0 l 42 0 l 42 1021 l 276 1021 l 276 0 z "},"k":{"ha":906,"x_min":69,"x_max":971,"o":"m 447 510 l 971 0 l 632 0 l 304 321 l 304 0 l 69 0 l 69 1021 l 304 1021 l 304 699 l 633 1021 l 971 1021 l 447 510 z "},"l":{"ha":721,"x_min":56,"x_max":663,"o":"m 663 0 l 56 0 l 56 1021 l 290 1021 l 290 235 l 663 235 l 663 0 z "},"m":{"ha":1051,"x_min":1,"x_max":1051,"o":"m 992 1021 l 1051 0 l 817 0 l 792 417 l 650 0 l 415 0 l 265 433 l 238 0 l 1 0 l 67 1021 l 308 1021 l 532 382 l 750 1021 l 992 1021 z "},"n":{"ha":925,"x_min":54,"x_max":876,"o":"m 876 1019 l 876 0 l 622 0 l 289 594 l 289 0 l 54 0 l 54 1017 l 310 1017 l 642 424 l 642 1019 l 876 1019 z "},"o":{"ha":1021,"x_min":0,"x_max":1021,"o":"m 510 1021 q 708 981 615 1021 q 871 872 801 940 q 981 710 940 803 q 1021 511 1021 617 q 981 313 1021 406 q 871 151 940 219 q 708 42 801 82 q 510 1 615 1 q 311 42 404 1 q 149 151 218 82 q 40 313 81 219 q 0 511 0 406 q 40 710 0 617 q 149 872 81 803 q 311 981 218 940 q 510 1021 404 1021 m 510 236 q 617 258 567 236 q 704 317 667 279 q 763 404 742 354 q 785 511 785 454 q 763 618 785 568 q 704 706 742 668 q 617 765 667 743 q 510 786 567 786 q 403 765 453 786 q 315 706 353 743 q 256 618 278 668 q 235 511 235 568 q 256 404 235 454 q 315 317 278 354 q 403 258 353 279 q 510 236 453 236 z "},"p":{"ha":772,"x_min":61,"x_max":717,"o":"m 717 590 q 684 426 717 503 q 594 290 651 349 q 460 198 536 232 q 296 163 383 164 l 296 0 l 61 0 l 61 1019 l 296 1019 q 460 983 383 1018 q 594 890 536 949 q 684 755 651 832 q 717 590 717 678 m 296 397 q 369 415 335 399 q 428 456 403 431 q 467 517 453 482 q 482 590 482 551 q 467 664 482 629 q 428 724 453 699 q 369 766 403 750 q 296 783 335 782 l 296 397 z "},"q":{"ha":986,"x_min":-15,"x_max":1001,"o":"m 1001 510 q 963 315 1001 406 q 856 154 924 225 l 915 68 l 722 -65 l 657 28 q 577 8 618 15 q 493 1 536 1 q 295 42 388 1 q 134 151 203 82 q 25 312 65 219 q -15 510 -15 404 q 25 708 -15 615 q 134 869 65 800 q 295 978 203 938 q 493 1018 388 1018 q 691 978 599 1018 q 852 869 783 938 q 961 708 921 800 q 1001 510 1001 615 m 493 236 q 514 238 510 236 l 394 411 l 589 544 l 718 356 q 767 510 767 421 q 745 615 767 565 q 687 703 724 665 q 600 762 650 740 q 493 783 550 783 q 386 762 436 783 q 299 703 336 740 q 241 615 263 665 q 219 510 219 565 q 241 403 219 453 q 299 316 263 353 q 386 258 336 279 q 493 236 436 236 z "},"r":{"ha":868,"x_min":61,"x_max":810,"o":"m 369 264 q 333 260 351 261 q 296 257 315 258 l 296 0 l 61 0 l 61 1017 l 296 1017 q 460 985 383 1015 q 594 903 536 954 q 684 783 651 851 q 717 638 717 714 q 682 485 717 554 q 585 364 647 415 l 810 0 l 533 0 l 369 264 m 296 493 q 367 506 333 494 q 427 538 401 518 q 467 583 453 557 q 482 638 482 608 q 467 692 482 667 q 427 736 453 717 q 367 767 401 756 q 296 781 333 779 l 296 493 z "},"s":{"ha":743,"x_min":26,"x_max":717,"o":"m 372 -19 q 276 -6 324 -19 q 185 35 228 7 q 68 160 110 83 q 26 329 26 238 l 261 329 q 279 265 261 288 q 311 233 297 242 q 365 215 336 217 q 422 226 394 214 q 453 247 442 235 q 472 271 465 258 q 479 294 478 283 q 481 313 481 306 q 479 331 481 319 q 472 353 478 342 q 453 378 465 365 q 422 400 442 390 q 390 413 407 407 q 353 425 372 418 q 281 450 318 436 q 206 488 243 464 q 124 564 157 518 q 76 663 90 610 q 66 772 61 715 q 97 879 71 828 q 160 961 122 926 q 243 1016 197 996 q 342 1040 289 1036 q 449 1031 394 1044 q 544 991 501 1018 q 619 926 588 964 q 667 840 650 888 q 683 742 683 793 l 449 742 q 428 786 449 774 q 393 803 408 799 q 380 804 390 803 q 356 804 369 806 q 329 796 343 803 q 307 771 315 789 q 303 724 296 749 q 331 686 310 700 q 374 666 350 675 q 424 649 397 657 q 472 633 447 642 q 521 614 496 625 q 665 492 613 572 q 717 313 717 413 q 665 135 717 215 q 521 13 613 54 q 447 -12 485 -4 q 372 -19 410 -19 z "},"t":{"ha":668,"x_min":21,"x_max":646,"o":"m 646 788 l 450 788 l 450 0 l 215 0 l 215 788 l 21 788 l 21 1024 l 646 1024 l 646 788 z "},"u":{"ha":922,"x_min":69,"x_max":844,"o":"m 457 0 q 309 28 378 0 q 186 110 240 57 q 101 235 131 165 q 69 383 71 304 l 69 1021 l 304 1021 l 304 385 q 350 278 304 324 q 458 235 394 235 q 517 247 490 235 q 565 281 544 260 q 597 329 585 301 q 608 389 608 357 l 608 1021 l 843 1021 l 843 390 q 815 240 844 311 q 733 117 785 169 q 610 33 681 64 q 461 0 540 1 l 457 0 z "},"v":{"ha":786,"x_min":-57,"x_max":842,"o":"m 842 1028 l 494 0 l 272 0 l -57 1028 l 190 1028 l 386 397 l 593 1028 l 842 1028 z "},"w":{"ha":1249,"x_min":-51,"x_max":1306,"o":"m 1306 1026 l 1004 0 l 772 0 l 638 511 l 521 0 l 288 0 l -51 1026 l 196 1026 l 385 458 l 514 1026 l 744 1026 l 894 461 l 1060 1026 l 1306 1026 z "},"x":{"ha":921,"x_min":0,"x_max":919,"o":"m 593 531 l 919 0 l 643 0 l 457 303 l 274 0 l 0 0 l 318 529 l 13 1028 l 288 1028 l 456 756 l 618 1028 l 893 1028 l 593 531 z "},"y":{"ha":993,"x_min":-3,"x_max":900,"o":"m 346 289 l -3 1028 l 257 1028 l 467 585 l 646 1028 l 900 1028 l 482 0 l 228 0 l 346 289 z "},"z":{"ha":932,"x_min":44,"x_max":864,"o":"m 858 0 l 44 0 l 471 792 l 100 792 l 100 1028 l 864 1026 l 438 235 l 858 235 l 858 0 z "},"÷":{"ha":669,"x_min":0,"x_max":669,"o":"m 335 669 q 249 705 285 669 q 214 792 214 740 q 249 877 214 842 q 335 913 285 913 q 420 877 385 913 q 456 792 456 842 q 420 705 456 740 q 335 669 385 669 m 335 354 q 420 319 385 354 q 456 233 456 283 q 420 148 456 183 q 335 113 385 113 q 249 148 285 113 q 214 233 214 183 q 249 319 214 283 q 335 354 285 354 m 669 394 l 0 394 l 0 631 l 669 629 l 669 394 z "},"á":{"ha":1038,"x_min":69,"x_max":968,"o":"m 721 0 l 681 124 l 360 124 l 318 0 l 69 0 l 415 1019 l 639 1019 l 968 0 l 721 0 m 440 358 l 604 358 l 525 606 l 440 358 m 433 1104 l 546 1339 l 757 1339 l 644 1104 l 433 1104 z "},"é":{"ha":793,"x_min":69,"x_max":724,"o":"m 724 785 l 304 785 l 304 631 l 644 631 l 644 396 l 304 396 l 304 235 l 724 235 l 724 0 l 69 0 l 69 1019 l 724 1019 l 724 785 m 286 1104 l 399 1339 l 610 1339 l 496 1104 l 286 1104 z "},"ó":{"ha":993,"x_min":-15,"x_max":1006,"o":"m 494 1021 q 693 981 600 1021 q 856 871 786 940 q 965 708 925 801 q 1006 510 1006 615 q 965 311 1006 404 q 856 149 925 218 q 693 40 786 81 q 494 0 600 0 q 296 40 389 0 q 134 149 203 81 q 25 311 65 218 q -15 510 -15 404 q 25 708 -15 615 q 134 871 65 801 q 296 981 203 940 q 494 1021 389 1021 m 494 235 q 601 256 551 235 q 689 315 651 278 q 748 403 726 353 q 769 510 769 453 q 748 617 769 567 q 689 704 726 667 q 601 763 651 742 q 494 785 551 785 q 388 763 438 785 q 300 704 338 742 q 241 617 263 667 q 219 510 219 567 q 241 403 219 453 q 300 315 263 353 q 388 256 338 278 q 494 235 438 235 m 501 1340 l 711 1340 l 599 1104 l 388 1104 l 501 1340 z "},"ú":{"ha":915,"x_min":69,"x_max":844,"o":"m 844 1035 l 844 390 q 815 240 844 311 q 734 117 786 169 q 612 33 682 64 q 461 0 542 1 l 457 0 q 186 111 297 0 q 101 235 131 165 q 69 383 71 304 l 69 1035 l 304 1035 l 304 385 q 350 278 306 322 q 458 235 394 235 q 517 247 490 235 q 565 281 544 260 q 597 329 585 301 q 608 389 608 357 l 608 1035 l 844 1035 m 572 1138 l 361 1138 l 475 1374 l 685 1374 l 572 1138 z "},"J":{"ha":714,"x_min":-18,"x_max":640,"o":"m 640 1033 l 640 319 q 615 192 640 251 q 544 87 589 132 q 439 16 499 42 q 311 -10 379 -10 q 183 16 243 -10 q 78 87 124 42 q 8 192 33 132 q -18 319 -18 251 l 199 319 q 231 241 199 274 q 311 208 264 208 q 390 241 357 208 q 422 319 422 274 l 422 1033 l 640 1033 z "},"j":{"ha":714,"x_min":-18,"x_max":640,"o":"m 640 1033 l 640 319 q 615 192 640 251 q 544 87 589 132 q 439 16 499 42 q 311 -10 379 -10 q 183 16 243 -10 q 78 87 124 42 q 8 192 33 132 q -18 319 -18 251 l 199 319 q 231 241 199 274 q 311 208 264 208 q 390 241 357 208 q 422 319 422 274 l 422 1033 l 640 1033 z "}}}
